<svg width="25" height="24" viewBox="0 0 25 24" fill="none" xmlns="http://www.w3.org/2000/svg">
<path fill-rule="evenodd" clip-rule="evenodd" d="M16.1308 17.6474C16.6428 18.2842 17.2593 19 17.2593 19C21.0452 18.8825 22.5 16.4684 22.5 16.4684C22.5 11.1018 20.0338 6.75276 20.0338 6.75276C17.5694 4.95102 15.2222 5.0019 15.2222 5.0019L14.9824 5.26856C17.8939 6.13522 19.2478 7.38433 19.2478 7.38433C16.6232 5.97744 13.6037 5.42824 10.6341 5.81768C10.5497 5.81768 10.4762 5.82953 10.3956 5.84252C10.3782 5.84533 10.3604 5.8482 10.3421 5.85101C9.74175 5.90189 8.28691 6.11943 6.45529 6.90188C5.82252 7.18433 5.44393 7.38433 5.44393 7.38433C5.44393 7.38433 6.86632 6.06856 9.94907 5.20014L9.77781 5.00015C9.77781 5.00015 7.4324 4.94927 4.9662 6.751C4.9662 6.751 2.5 11.1001 2.5 16.4667C2.5 16.4667 3.93681 18.8825 7.72084 19C7.72084 19 8.35542 18.2474 8.86921 17.6158C6.69326 16.9825 5.87119 15.6492 5.87119 15.6492C5.87119 15.6492 6.04246 15.7649 6.35073 15.9299C6.37007 15.9521 6.39403 15.97 6.42104 15.9825C6.44466 15.9981 6.46828 16.0095 6.49209 16.0209C6.51916 16.034 6.54646 16.0471 6.57427 16.0667C6.97654 16.2829 7.39403 16.4711 7.8236 16.6298C8.63811 16.944 9.48054 17.1848 10.3403 17.3491C12.667 17.7839 15.0738 17.541 17.2593 16.6509C17.8597 16.4334 18.5267 16.1141 19.2298 15.6649C19.2298 15.6649 18.3734 17.0298 16.1308 17.6474ZM7.54953 13.0685C7.54953 12.051 8.31932 11.2176 9.29642 11.2176C10.2717 11.2176 11.0613 12.0492 11.0415 13.0685C11.0415 14.0825 10.2717 14.9194 9.29642 14.9194C8.33734 14.9194 7.54953 14.0825 7.54953 13.0685ZM13.8016 13.0685C13.8016 12.051 14.5713 11.2176 15.5484 11.2176C16.5238 11.2176 17.2917 12.0492 17.2935 13.0685C17.2935 14.0825 16.5238 14.9194 15.5484 14.9194C14.5894 14.9194 13.8016 14.0825 13.8016 13.0685Z" fill="white"/>
</svg>
